PathFileType	4	(X/Y/Z)	C:\Users\Graham\Documents\MATLAB\MOtoNMS_v2_2\MyData\ElaboratedData\S3\17-05-18\staticElaborations\Static1\Static1\\Static1.trc
DataRate	CameraRate	NumFrames	NumMarkers	Units	OrigDataRate	DataStartFrame
100	100	4	38	mm	100	2
Frame#	Time	V_Sacral			R_ASIS			L_ASIS			R_Knee_Lat			R_Knee_Med			R_Thigh_Upper			R_Thigh_Front			R_Thigh_Rear			L_Knee_Lat			L_Knee_Med			L_Thigh_Upper			L_Thigh_Front			L_Thigh_Rear			R_Ankle_Lat			R_Ankle_Med			R_Shank_Upper			R_Shank_Front			R_Shank_Rear			L_Ankle_Lat			L_Ankle_Med			L_Shank_Upper			L_Shank_Front			L_Shank_Rear			R_Heel			R_MTP1			R_MTP5			L_Heel			L_MTP1			L_MTP5			Clavicle			R_Acromium			L_Acromium			LAJC			RAJC			LHJC			RHJC			LKJC			RKJC		
		X1	Y1	Z1	X2	Y2	Z2	X3	Y3	Z3	X4	Y4	Z4	X5	Y5	Z5	X6	Y6	Z6	X7	Y7	Z7	X8	Y8	Z8	X9	Y9	Z9	X10	Y10	Z10	X11	Y11	Z11	X12	Y12	Z12	X13	Y13	Z13	X14	Y14	Z14	X15	Y15	Z15	X16	Y16	Z16	X17	Y17	Z17	X18	Y18	Z18	X19	Y19	Z19	X20	Y20	Z20	X21	Y21	Z21	X22	Y22	Z22	X23	Y23	Z23	X24	Y24	Z24	X25	Y25	Z25	X26	Y26	Z26	X27	Y27	Z27	X28	Y28	Z28	X29	Y29	Z29	X30	Y30	Z30	X31	Y31	Z31	X32	Y32	Z32	X33	Y33	Z33	X34	Y34	Z34	X35	Y35	Z35	X36	Y36	Z36	X37	Y37	Z37	X38	Y38	Z38	

152	1.510000	-52.463313	1040.499665	50.141838	142.903999	1005.594074	177.980859	143.091532	1003.262132	-67.896955	48.999757	522.679385	175.598515	28.692759	516.485565	60.178791	143.888777	741.749691	177.206232	135.236268	650.744506	137.459422	104.209074	651.192630	181.029698	56.151750	524.146535	-112.566531	53.136267	513.679319	6.935996	149.155702	777.295762	-93.044914	150.645553	675.629600	-57.870374	115.897833	676.705014	-107.414109	-8.570660	100.059634	146.389745	1.040517	111.720478	65.193663	59.637102	320.049293	133.932970	44.497100	226.972901	98.684194	34.385425	223.393211	156.343750	-6.243416	108.577719	-131.768319	4.852844	105.227706	-51.495168	63.581704	302.203260	-83.961083	46.400952	208.522978	-56.688791	52.449529	213.039655	-115.840927	-70.613277	49.528901	106.167653	138.428602	55.782583	81.355788	107.479177	51.054388	159.612063	-70.460468	51.299182	-105.045568	135.433219	53.573447	-76.541513	111.167456	49.873163	-153.586406	79.771370	1403.742282	63.714755	-2.358572	1424.296986	226.441174	17.364040	1439.625252	-113.384989	-0.695286	106.902712	-91.631743	-3.765071	105.890056	105.791704	71.023361	930.803575	-32.762032	70.888454	932.481119	144.116664	54.644008	518.912927	-52.815267	38.846258	519.582475	117.888653	
153	1.520000	-52.471092	1040.513044	50.017453	142.863080	1005.605910	177.872007	143.080386	1003.259798	-67.990268	48.953995	522.660504	175.565168	28.671063	516.477681	60.114969	143.837603	741.763442	177.132000	135.194425	650.752082	137.394961	104.153974	651.199239	180.956822	56.112624	524.143170	-112.622627	53.085041	513.686409	6.874494	149.135976	777.288516	-93.128239	150.608907	675.624998	-57.939266	115.869896	676.699119	-107.491740	-8.573838	100.063260	146.384613	1.035250	111.713780	65.188078	59.603613	320.055747	133.897998	44.479009	226.973514	98.661918	34.361931	223.399969	156.324881	-6.248291	108.569210	-131.779481	4.846644	105.229673	-51.502758	63.557201	302.206334	-83.996703	46.383203	208.527229	-56.710275	52.428516	213.034305	-115.865557	-70.620692	49.524933	106.175163	138.425944	55.789258	81.355080	107.476599	51.056859	159.610417	-70.462070	51.293886	-105.048678	135.432675	53.574258	-76.545622	111.166997	49.872299	-153.587763	79.778198	1403.761516	63.551340	-2.347558	1424.357303	226.278749	17.359832	1439.606454	-113.556159	-0.700823	106.899441	-91.641120	-3.769294	105.888520	105.786345	71.008153	930.811441	-32.862549	70.851828	932.499188	144.005882	54.598832	518.914790	-52.874066	38.812529	519.569092	117.840069	
154	1.530000	-52.483628	1040.527004	49.891659	142.827456	1005.617567	177.761165	143.071309	1003.257359	-68.086749	48.906564	522.655283	175.518064	28.648877	516.468622	60.050577	143.788341	741.776266	177.057988	135.153297	650.758676	137.329974	104.098216	651.204644	180.881326	56.072365	524.139918	-112.680961	53.029996	513.692458	6.811921	149.121085	777.282119	-93.210139	150.572168	675.619622	-58.007441	115.841810	676.691956	-107.568599	-8.576498	100.066791	146.378401	1.029879	111.706419	65.182220	59.568859	320.061858	133.862341	44.460467	226.973177	98.639198	34.337614	223.406868	156.306033	-6.253713	108.560154	-131.790715	4.840817	105.231523	-51.510120	63.531559	302.209311	-84.031899	46.366020	208.532291	-56.731372	52.408240	213.031620	-115.889811	-70.626381	49.520765	106.179678	138.422877	55.796149	81.354434	107.473509	51.059369	159.608942	-70.464077	51.288484	-105.051568	135.432559	53.574739	-76.549559	111.166334	49.871363	-153.589340	79.782996	1403.778754	63.387530	-2.340133	1424.417299	226.116391	17.352595	1439.585652	-113.729730	-0.706448	106.895838	-91.650417	-3.773309	105.886605	105.780311	70.993721	930.818921	-32.965114	70.818298	932.516816	143.893829	54.551180	518.916188	-52.934520	38.777721	519.561953	117.784321	
155	1.540000	-52.502011	1040.541462	49.764519	142.797330	1005.628875	177.648218	143.064355	1003.254646	-68.186681	48.857954	522.661693	175.459280	28.625188	516.458577	59.986247	143.741750	741.787882	176.983839	135.112797	650.764052	137.264017	104.042716	651.208918	180.803529	56.030937	524.136739	-112.742037	52.971085	513.697200	6.748163	149.109840	777.276109	-93.290664	150.535558	675.613383	-58.075254	115.813330	676.683560	-107.645019	-8.578935	100.069893	146.371305	1.024305	111.698527	65.176251	59.533364	320.067696	133.826270	44.441361	226.972018	98.616120	34.312695	223.413866	156.287329	-6.259578	108.550511	-131.801908	4.835243	105.233149	-51.517402	63.504740	302.212248	-84.066860	46.349288	208.538281	-56.752228	52.388852	213.031265	-115.913534	-70.629316	49.516139	106.180436	138.419330	55.803210	81.353814	107.469934	51.061905	159.607703	-70.466375	51.282894	-105.054309	135.432621	53.575342	-76.553152	111.165414	49.870322	-153.591111	79.785214	1403.793570	63.223820	-2.336398	1424.475097	225.954028	17.342957	1439.563446	-113.904500	-0.712168	106.891830	-91.659655	-3.777315	105.884210	105.773778	70.979897	930.825799	-33.069939	70.787803	932.533787	143.780405	54.501011	518.916970	-52.996937	38.741571	519.560135	117.722764	
